PathFileType	4	(X/Y/Z)	7_coords_data.trc
DataRate	CameraRate	NumFrames	NumMarkers	Units	OrigDataRate	OrigDataStartFrame	OrigNumFrames
30.0	30.0	9	21	m	30.0	65	86
Frame#	Time	THUMB_TIP	THUMB_IP	THUMB_MCP	THUMB_CMC	INDEX_TIP	INDEX_DIP	INDEX_PIP	INDEX_MCP	MIDDLE_TIP	MIDDLE_DIP	MIDDLE_PIP	MIDDLE_MCP	RING_TIP	RING_DIP	RING_PIP	RING_MCP	PINKY_TIP	PINKY_DIP	PINKY_PIP	PINKY_MCP	WRIST
X1	Y1	Z1	X2	Y2	Z2	X3	Y3	Z3	X4	Y4	Z4	X5	Y5	Z5	X6	Y6	Z6	X7	Y7	Z7	X8	Y8	Z8	X9	Y9	Z9	X10	Y10	Z10	X11	Y11	Z11	X12	Y12	Z12	X13	Y13	Z13	X14	Y14	Z14	X15	Y15	Z15	X16	Y16	Z16	X17	Y17	Z17	X18	Y18	Z18	X19	Y19	Z19	X20	Y20	Z20	X21	Y21	Z21
64	2.1333333333333333	0.047184200286865235	0.039517398834228515	0.9564110107421875	0.031691699981689456	0.033971099853515624	0.97664501953125	0.01850469970703125	0.02815769958496094	1.0011900024414062	-0.00929615020751953	0.033823699951171876	1.01275	0.05265349960327149	-0.002772569894790649	0.9169290161132813	0.04247489929199219	-0.011236300468444824	0.9340369873046875	0.030679500579833985	-0.01676530075073242	0.9526649780273437	0.010602100372314453	-0.014758500099182129	0.9840560302734375	0.028977500915527345	0.036872600555419924	0.9526859741210938	0.02309429931640625	0.020243499755859377	0.94027197265625	0.011676600456237793	-0.003250250101089477	0.93802197265625	-0.012207300186157226	-0.014853599548339844	0.9710139770507813	0.011240599632263183	0.041711898803710935	0.9497109985351563	0.00439454984664917	0.02625469970703125	0.9384310302734375	-0.009096349716186523	0.005235909938812256	0.9341119995117187	-0.028873199462890624	-0.0020114200115203848	0.9640900268554687	-0.03781719970703125	0.011822400093078613	0.8985910034179687	-0.03952199935913086	0.012386699676513672	0.9179650268554688	-0.04028359985351562	0.012875499725341797	0.9352849731445313	-0.04036439895629883	0.01554259967803955	0.9633629760742187	-0.040107498168945314	0.027849000930786134	1.0305400390625
65	2.1666666666666665	0.05327799987792969	0.03173119926452637	0.96152197265625	0.034699501037597655	0.028138200759887697	0.9802969970703125	0.019311800003051757	0.024834699630737304	1.00402001953125	-0.009241720199584962	0.032686698913574216	1.014510009765625	0.051611499786376955	0.001117419958114624	0.9200590209960937	0.041137500762939455	-0.009679969787597656	0.9354869995117188	0.028663099288940428	-0.017222999572753906	0.953114990234375	0.008108539581298828	-0.016629499435424806	0.9845449829101562	0.03695660018920898	0.03374860000610352	0.934969970703125	0.02552840042114258	0.01553600025177002	0.9318610229492188	0.010341300010681152	-0.005815800189971924	0.9372730102539063	-0.013972399711608886	-0.014786499977111817	0.9714019775390625	0.018154499053955078	0.03857590103149414	0.9337239990234375	0.007166540145874024	0.021871999740600587	0.9293690185546875	-0.009554860115051269	0.002727969884872436	0.9337589721679688	-0.029645999908447265	-0.0007851279973983761	0.9647130126953125	-0.031874300003051755	0.018877899169921875	0.8991400146484375	-0.035823001861572265	0.017509199142456053	0.918260009765625	-0.03841960144042969	0.016327600479125976	0.935697021484375	-0.04065829849243164	0.01715329933166504	0.9640180053710937	-0.040548301696777346	0.028683799743652344	1.0311700439453124
66	2.2	0.05671699905395508	0.024679500579833983	0.9661959838867188	0.03659130096435547	0.023074600219726564	0.9835280151367187	0.019854299545288084	0.021099300384521485	1.007	-0.009027500152587891	0.031383100509643554	1.0163800048828124	0.05176910018920899	0.004443120002746582	0.9251129760742187	0.04039250183105469	-0.008781000137329102	0.9375170288085938	0.026825300216674806	-0.018225799560546874	0.9535679931640625	0.005759469985961914	-0.018287099838256837	0.9842440185546875	0.04091730117797852	0.0242898006439209	0.9220980224609375	0.02664430046081543	0.007598470211029053	0.9245460205078125	0.008680700302124023	-0.00933782958984375	0.936219970703125	-0.015722100257873534	-0.01397920036315918	0.971083984375	0.02401840019226074	0.028497100830078125	0.915843994140625	0.008922679901123047	0.014748900413513184	0.9204979858398438	-0.00984939956665039	0.0013337500095367432	0.9321400146484375	-0.029690099716186524	0.001479619979858398	0.964468017578125	-0.022291200637817383	0.029206499099731446	0.9020640258789062	-0.029164100646972658	0.024945999145507814	0.9191740112304687	-0.03455939865112305	0.021489299774169923	0.9360089721679687	-0.03984289932250976	0.01957609939575195	0.9636680297851562	-0.04094979858398438	0.029095699310302734	1.0323699951171874
67	2.2333333333333334	0.05803620147705078	0.017042299270629883	0.968291015625	0.037488201141357425	0.01725119972229004	0.9854869995117187	0.02032550048828125	0.017299400329589844	1.00822998046875	-0.008570099830627441	0.030008899688720704	1.0166500244140626	0.051058399200439454	0.0037966101169586183	0.9290789794921875	0.03926300048828125	-0.010020500183105468	0.9398109741210937	0.02480109977722168	-0.02051099967956543	0.9544959716796875	0.0030399000644683837	-0.02021699905395508	0.9849340209960937	0.04011309814453125	0.012437199592590332	0.91447900390625	0.024343999862670898	-0.00150953996181488	0.9208679809570313	0.005365419864654541	-0.014926600456237792	0.9358319702148438	-0.01755690002441406	-0.01431190013885498	0.9716079711914063	0.02314579963684082	0.019120700836181642	0.9113619995117187	0.006956759929656982	0.007576129913330078	0.917947021484375	-0.012323399543762208	-0.0021738700866699217	0.93189501953125	-0.030182300567626955	0.001920429944992065	0.9642680053710937	-0.011174400329589844	0.03529909896850586	0.9079650268554688	-0.02161389923095703	0.029145700454711914	0.9222009887695313	-0.030226999282836915	0.02420789909362793	0.9371959838867188	-0.03916379928588867	0.02052389907836914	0.9634130249023437	-0.040649898529052736	0.02994000053405762	1.0325899658203126
68	2.2666666666666666	0.0573827018737793	0.008002940177917481	0.9693829956054687	0.03690879821777344	0.011095199584960937	0.985947021484375	0.019566999435424805	0.01270989990234375	1.00902001953125	-0.008254759788513184	0.028077199935913087	1.0172999877929687	0.04963800048828125	-0.001403900027275085	0.9318489990234375	0.03691490173339844	-0.014752300262451171	0.9417750244140625	0.0215221004486084	-0.024839799880981447	0.9553259887695312	-0.000369783997535705	-0.02298889923095703	0.985541015625	0.03922069931030273	0.004976870059967041	0.9135230102539063	0.02226930046081543	-0.007106100082397461	0.9208839721679688	0.002338380098342895	-0.018337499618530272	0.936552001953125	-0.02038159942626953	-0.015423700332641602	0.9724219970703125	0.02292169952392578	0.013633999824523926	0.911323974609375	0.0058917999267578125	0.003813699960708618	0.9185689697265625	-0.01415590000152588	-0.004152750015258789	0.93272900390625	-0.031374900817871094	0.00136558997631073	0.964551025390625	-0.004960790157318116	0.036551498413085935	0.9134409790039062	-0.017696399688720704	0.029775400161743164	0.9249819946289063	-0.028514400482177734	0.02424370002746582	0.9383510131835937	-0.039193599700927735	0.020482099533081055	0.963656005859375	-0.04046080017089844	0.03021470069885254	1.0330699462890625
69	2.3	0.05739490127563476	-0.004818840026855469	0.9740650024414063	0.0365802001953125	0.001204300045967102	0.9898150024414063	0.018446800231933593	0.005580770015716553	1.0115499877929688	-0.007471360206604004	0.02425629997253418	1.0190700073242187	0.04724290084838867	-0.014719499588012695	0.929697021484375	0.03247320175170899	-0.025097000122070313	0.9403419799804688	0.01592099952697754	-0.031675399780273436	0.954926025390625	-0.005340429782867431	-0.025635900497436522	0.9851220092773437	0.035665000915527344	-0.007919579982757568	0.9067750244140625	0.01740909957885742	-0.015383700370788574	0.9178939819335937	-0.002529160022735595	-0.021717899322509764	0.9360850219726562	-0.023593799591064453	-0.015126600265502929	0.9716710205078125	0.023331600189208983	0.007003960132598877	0.9090549926757813	0.0050764398574829105	0.00047969600558280906	0.91822998046875	-0.015098500251770019	-0.0039934000968933105	0.933083984375	-0.032017398834228515	0.002963999986648559	0.9644099731445313	0.0012369300127029418	0.037807300567626954	0.9177589721679688	-0.01297469997406006	0.031610200881958005	0.9273610229492187	-0.02524300003051758	0.026625099182128905	0.9395170288085938	-0.03717559814453125	0.022602100372314454	0.9637000122070313	-0.0400010986328125	0.030041099548339844	1.0345400390625
70	2.3333333333333335	0.05484500122070313	-0.01918720054626465	0.9783489990234375	0.034612598419189455	-0.00966627025604248	0.9935330200195313	0.016184200286865236	-0.003188780069351196	1.0144400024414062	-0.006795450210571289	0.018818700790405273	1.0213900146484376	0.04089080047607422	-0.03017930030822754	0.9246920166015625	0.024573699951171875	-0.035976398468017576	0.9373770141601563	0.008170599937438966	-0.038004398345947266	0.9533259887695312	-0.010930100440979003	-0.027880800247192382	0.98385400390625	0.028596900939941407	-0.018332799911499022	0.8993909912109375	0.010998900413513184	-0.020831499099731445	0.9141240234375	-0.007977089881896972	-0.02257029914855957	0.9344660034179687	-0.02600069999694824	-0.013878700256347656	0.9710289916992187	0.020348699569702148	3.2532900571823e-05	0.904135986328125	0.002417850017547607	-0.002018359899520874	0.915968017578125	-0.016625600814819334	-0.002355350017547607	0.9330029907226562	-0.03173209953308105	0.005405910015106201	0.9640419921875	0.005793930053710938	0.03833380126953125	0.9192630004882812	-0.008920749664306641	0.03375400161743164	0.92910498046875	-0.02159630012512207	0.029805999755859375	0.9409509887695312	-0.034148799896240235	0.0256028995513916	0.9647239990234375	-0.03948009872436523	0.02886319923400879	1.035949951171875
71	2.3666666666666667	0.049516498565673826	-0.03601029968261719	0.9839299926757813	0.030335100173950195	-0.0223306999206543	0.997218994140625	0.011783100128173829	-0.012918499946594239	1.0167999877929688	-0.007860000133514405	0.012318300247192384	1.02297998046875	0.032630599975585935	-0.04119729995727539	0.919	0.01607509994506836	-0.042481800079345704	0.9335159912109375	0.00049788498878479	-0.04099919891357422	0.9502780151367187	-0.015876500129699708	-0.028920000076293945	0.981083984375	0.020211599349975587	-0.024248899459838866	0.8920499877929687	0.004758409976959229	-0.022996099472045898	0.9098770141601562	-0.011770600318908692	-0.02127039909362793	0.932281005859375	-0.027346399307250975	-0.01172350025177002	0.969291015625	0.016397199630737304	-0.0032164299488067617	0.8987130126953125	3.0484799295663e-05	-0.001571290016174316	0.9134409790039062	-0.016602500915527344	0.001248769998550415	0.9325050048828125	-0.030100799560546874	0.008523019790649414	0.9644089965820313	0.009041330337524415	0.040783199310302734	0.9181300048828125	-0.004939300060272217	0.03746950149536133	0.929875	-0.01679910087585449	0.034218299865722654	0.9425910034179688	-0.029144399642944335	0.029164300918579102	0.965458984375	-0.03969710159301758	0.026651699066162108	1.036
72	2.4	0.03831740188598633	-0.05376589965820312	0.9864320068359375	0.02208810043334961	-0.03651549911499023	0.9986240234375	0.003921760082244873	-0.024005699157714843	1.0180700073242188	-0.011114700317382813	0.004166059970855713	1.02593994140625	0.019637399673461915	-0.04936920166015625	0.9110230102539062	0.0047359299659729005	-0.04656999969482422	0.9274140014648438	-0.00830582046508789	-0.0419901008605957	0.945552001953125	-0.019355600357055663	-0.028574199676513673	0.97681201171875	0.0069465599060058595	-0.025189599990844726	0.8835770263671875	-0.004688479900360107	-0.021690399169921874	0.904208984375	-0.017163200378417967	-0.01782040023803711	0.9290789794921875	-0.02669809913635254	-0.008635390281677245	0.9666380004882813	0.009178770065307618	-0.0016642999649047851	0.8922490234375	-0.003936759948730468	0.002088150024414062	0.9099920043945312	-0.016711799621582032	0.006396009922027588	0.9316190185546875	-0.0253971004486084	0.012323200225830078	0.9646580200195313	0.010768400192260743	0.04500669860839844	0.9164730224609375	-0.000958244979381561	0.041972198486328126	0.9308779907226562	-0.010786199569702148	0.03861000061035156	0.9449530029296875	-0.021381200790405272	0.032311100006103516	0.9676400146484375	-0.03983369827270508	0.024051200866699218	1.036280029296875
